#!OML:ASF F:\VICON\USERDATA\INSTALL\rory3\rory3.ASF
:FULLY-SPECIFIED
:DEGREES
97
root -0.117839 17.9819 -0.818707 2.90163 -10.3903 0.193465
lowerback -0.739775 -1.63777 -3.31673
upperback -1.11594 -2.16906 2.31131
thorax -0.519061 -1.05666 4.23081
lowerneck -20.8574 0.256037 -9.06027
upperneck 27.7892 2.55527 3.23636
head 12.5552 0.583247 3.1983
rclavicle 5.2914e-014 -1.43125e-014
rhumerus -33.5705 -3.85913 -80.484
rradius 30.8026
rwrist 20.2586
rhand -17.7109 7.82955
rfingers 7.12502
rthumb 8.54933 -21.9774
lclavicle 5.2914e-014 -1.43125e-014
lhumerus 12.6602 -25.2202 67.8363
lradius 103.995
lwrist -3.851
lhand -36.9438 28.8049
lfingers 7.12502
lthumb -10.0204 58.5463
rfemur -8.4954 9.76927 16.5107
rtibia 24.9753
rfoot -16.3222 -4.50173
rtoes 4.72018
lfemur -0.846413 -2.37075 -20.3488
ltibia 14.2858
lfoot -11.642 6.59781
ltoes -12.5064
98
root -0.118525 17.9819 -0.819643 3.00446 -10.3466 -0.0100002
lowerback -0.755323 -1.66223 -3.14702
upperback -1.14122 -2.20155 2.40263
thorax -0.535763 -1.07312 4.22923
lowerneck -20.9363 0.281456 -9.03168
upperneck 27.645 2.58787 3.23871
head 12.5107 0.606764 3.19655
rclavicle 2.88114e-014 -2.26615e-014
rhumerus -33.5567 -3.67981 -80.5293
rradius 30.9364
rwrist 20.1502
rhand -17.8237 7.73757
rfingers 7.12502
rthumb 8.44049 -22.0738
lclavicle 2.88114e-014 -2.26615e-014
lhumerus 13.4939 -24.9208 67.0913
lradius 104.26
lwrist -3.87808
lhand -36.9927 28.73
lfingers 7.12502
lthumb -10.0676 58.4691
rfemur -8.57962 9.79632 16.729
rtibia 24.9938
rfoot -16.3852 -4.5209
rtoes 4.80944
lfemur -0.864443 -2.34306 -20.1048
ltibia 14.1447
lfoot -11.5753 6.5102
ltoes -12.2612
99
root -0.117906 17.9832 -0.809104 2.96131 -10.376 0.254712
lowerback -0.90291 -1.65671 -3.38552
upperback -1.07554 -2.18986 2.32985
thorax -0.380845 -1.07041 4.28262
lowerneck -21.0457 0.253388 -9.02463
upperneck 27.4444 2.54448 3.27121
head 12.4547 0.600544 3.19676
rclavicle -3.11781e-014 -3.97569e-016
rhumerus -33.4442 -3.63367 -80.5638
rradius 31.0134
rwrist 20.0899
rhand -17.7154 7.66617
rfingers 7.12502
rthumb 8.54503 -22.1409
lclavicle -3.11781e-014 -3.97569e-016
lhumerus 14.2554 -24.5942 66.4138
lradius 104.384
lwrist -3.95567
lhand -37.1429 28.4408
lfingers 7.12502
lthumb -10.2125 58.1729
rfemur -8.59801 9.69096 16.4196
rtibia 25.1031
rfoot -16.3992 -4.43721
rtoes 4.30423
lfemur -0.602344 -2.32701 -20.4204
ltibia 13.7208
lfoot -11.4155 6.52638
ltoes -12.2767
100
root -0.11536 17.9807 -0.784963 2.74293 -10.4679 0.944234
lowerback -1.10939 -1.63579 -3.98875
upperback -0.963569 -2.15166 2.1274
thorax -0.140061 -1.05621 4.40557
lowerneck -21.1358 0.222072 -9.03078
upperneck 27.2256 2.49759 3.30822
head 12.3879 0.592633 3.19945
rclavicle -1.27346e-014 -1.51076e-014
rhumerus -33.3271 -3.55313 -80.5895
rradius 31.025
rwrist 20.0402
rhand -17.6999 7.75151
rfingers 7.12502
rthumb 8.55993 -22.055
lclavicle -1.27346e-014 -1.51076e-014
lhumerus 15.005 -24.2931 65.7528
lradius 104.473
lwrist -4.09093
lhand -37.2778 28.2525
lfingers 7.12502
lthumb -10.3427 57.9781
rfemur -8.45608 9.43087 15.6196
rtibia 25.2535
rfoot -16.473 -4.05323
rtoes 4.4458
lfemur -0.0767549 -2.37056 -21.2613
ltibia 13.1488
lfoot -11.2382 6.69602
ltoes -12.6699
101
root -0.112908 17.9786 -0.770295 2.61431 -10.5249 1.34054
lowerback -1.15373 -1.62611 -4.33327
upperback -0.957968 -2.13427 2.02497
thorax -0.103074 -1.04722 4.49297
lowerneck -21.2146 0.225969 -9.02793
upperneck 27.0941 2.49731 3.34764
head 12.3502 0.603376 3.21143
rclavicle 1.46231e-014 -1.19271e-015
rhumerus -33.3291 -3.40985 -80.6007
rradius 31.0212
rwrist 19.9517
rhand -17.6901 7.9256
rfingers 7.12502
rthumb 8.56943 -21.8805
lclavicle 1.46231e-014 -1.19271e-015
lhumerus 15.681 -23.9698 65.1416
lradius 104.582
lwrist -4.25706
lhand -37.3168 28.029
lfingers 7.12502
lthumb -10.3803 57.7528
rfemur -8.41162 9.25979 15.1522
rtibia 25.4319
rfoot -16.5485 -3.76803
rtoes 4.66257
lfemur 0.391868 -2.35945 -21.7447
ltibia 12.4481
lfoot -10.9634 6.73996
ltoes -12.454
102
root -0.113218 17.9783 -0.769425 2.61441 -10.5406 1.36131
lowerback -1.13642 -1.6292 -4.39055
upperback -0.964283 -2.13875 2.07087
thorax -0.115059 -1.04877 4.57365
lowerneck -21.4032 0.242377 -9.08918
upperneck 27.0177 2.53677 3.43382
head 12.3517 0.6295 3.26206
rclavicle 3.02153e-014 -2.78299e-015
rhumerus -33.2584 -3.29677 -80.5687
rradius 31.005
rwrist 19.9784
rhand -17.7495 8.26329
rfingers 7.12502
rthumb 8.51212 -21.5451
lclavicle 3.02153e-014 -2.78299e-015
lhumerus 16.4801 -23.5743 64.5622
lradius 104.783
lwrist -4.36722
lhand -37.3659 28.2342
lfingers 7.12502
lthumb -10.4277 57.9556
rfemur -8.48418 9.28839 15.1286
rtibia 25.5639
rfoot -16.6204 -3.74542
rtoes 4.37968
lfemur 0.64355 -2.29194 -21.7696
ltibia 11.8823
lfoot -10.6796 6.69785
ltoes -12.6669
103
root -0.114194 17.9799 -0.769927 2.59897 -10.5581 1.4351
lowerback -1.13907 -1.63944 -4.49219
upperback -0.929847 -2.15124 2.07755
thorax -0.0728849 -1.05649 4.63716
lowerneck -21.5466 0.24902 -9.2057
upperneck 26.8742 2.54821 3.61158
head 12.3165 0.652697 3.34965
rclavicle 3.11843e-014 -8.74653e-015
rhumerus -33.1687 -3.18308 -80.6138
rradius 31.096
rwrist 20.0193
rhand -17.7727 8.42797
rfingers 7.12502
rthumb 8.48969 -21.3814
lclavicle 3.11843e-014 -8.74653e-015
lhumerus 17.495 -23.1586 63.8625
lradius 105.034
lwrist -4.42691
lhand -37.5649 28.6292
lfingers 7.12502
lthumb -10.6196 58.3409
rfemur -8.52256 9.30508 15.0495
rtibia 25.6252
rfoot -16.6331 -3.74473
rtoes 4.14368
lfemur 0.775328 -2.27753 -21.8439
ltibia 11.6523
lfoot -10.5647 6.65979
ltoes -12.6228
104
root -0.114332 17.9811 -0.769985 2.59531 -10.5467 1.43797
lowerback -1.07329 -1.65514 -4.50421
upperback -0.965668 -2.17512 2.08235
thorax -0.143338 -1.06575 4.65128
lowerneck -21.4972 0.265696 -9.24396
upperneck 26.6607 2.53393 3.75497
head 12.2185 0.670411 3.40082
rclavicle -3.19919e-015 7.95139e-016
rhumerus -33.2074 -3.03585 -80.6833
rradius 31.2074
rwrist 19.9066
rhand -17.6676 8.26261
rfingers 7.12502
rthumb 8.59117 -21.5426
lclavicle -3.19919e-015 7.95139e-016
lhumerus 18.3805 -22.7764 63.2655
lradius 105.255
lwrist -4.52572
lhand -37.6364 28.998
lfingers 7.12502
lthumb -10.6886 58.7061
rfemur -8.52664 9.28057 15.048
rtibia 25.6372
rfoot -16.6341 -3.75354
rtoes 4.28988
lfemur 0.810025 -2.29044 -21.8437
ltibia 11.6392
lfoot -10.522 6.63747
ltoes -12.6355
105
root -0.114437 17.9796 -0.770294 2.57561 -10.4974 1.44758
lowerback -0.983648 -1.72008 -4.54114
upperback -1.00102 -2.26561 2.13373
thorax -0.216299 -1.10818 4.72765
lowerneck -21.4292 0.305947 -9.24677
upperneck 26.339 2.5805 3.75744
head 12.074 0.70334 3.39761
rclavicle 3.23646e-014 -1.15295e-014
rhumerus -33.2091 -2.70333 -80.7542
rradius 31.2859
rwrist 19.7489
rhand -17.6683 7.95442
rfingers 7.12502
rthumb 8.59042 -21.8508
lclavicle 3.23646e-014 -1.15295e-014
lhumerus 18.9126 -22.2394 62.7907
lradius 105.418
lwrist -4.64126
lhand -37.6596 29.265
lfingers 7.12502
lthumb -10.711 58.972
rfemur -8.49381 9.2423 15.0463
rtibia 25.6358
rfoot -16.6291 -3.74866
rtoes 4.50325
lfemur 0.820317 -2.3475 -21.8488
ltibia 11.6583
lfoot -10.539 6.58122
ltoes -12.6748
106
root -0.115232 17.9792 -0.769104 2.58668 -10.4805 1.41691
lowerback -0.956691 -1.80701 -4.57928
upperback -1.01026 -2.38274 2.2531
thorax -0.220924 -1.16633 4.8726
lowerneck -21.5702 0.354016 -9.34098
upperneck 26.1251 2.70316 3.73513
head 12.0081 0.753699 3.41953
rclavicle -7.19787e-014 2.14687e-014
rhumerus -33.0831 -2.26608 -80.7744
rradius 31.2668
rwrist 19.7256
rhand -17.8088 7.83692
rfingers 7.12502
rthumb 8.45481 -21.9738
lclavicle -7.19787e-014 2.14687e-014
lhumerus 19.2737 -21.599 62.2876
lradius 105.479
lwrist -4.64941
lhand -38.3362 28.2687
lfingers 7.12502
lthumb -11.3635 57.9408
rfemur -8.47921 9.22859 15.079
rtibia 25.6272
rfoot -16.6492 -3.73567
rtoes 4.49182
lfemur 0.790958 -2.34598 -21.8137
ltibia 11.7052
lfoot -10.5908 6.56063
ltoes -12.9294
107
root -0.114688 17.9788 -0.766061 2.61224 -10.4863 1.35941
lowerback -0.995473 -1.83314 -4.52737
upperback -0.98054 -2.41618 2.29194
thorax -0.164995 -1.18552 4.88102
lowerneck -21.8071 0.394389 -9.16444
upperneck 25.9952 2.78239 3.53606
head 12.0052 0.784617 3.32724
rclavicle 1.71638e-014 6.36111e-015
rhumerus -32.9517 -2.12514 -80.8252
rradius 31.241
rwrist 19.7605
rhand -17.8752 8.04558
rfingers 7.12502
rthumb 8.39075 -21.7678
lclavicle 1.71638e-014 6.36111e-015
lhumerus 19.9547 -21.0664 61.7099
lradius 105.45
lwrist -4.73502
lhand -39.1909 27.2762
lfingers 7.12502
lthumb -12.1878 56.9011
rfemur -8.47441 9.21222 15.1343
rtibia 25.6221
rfoot -16.652 -3.73086
rtoes 4.35243
lfemur 0.746113 -2.27907 -21.7565
ltibia 11.74
lfoot -10.5923 6.56083
ltoes -12.8535
